<svg width="60" height="67" viewBox="0 0 60 67" fill="none" xmlns="http://www.w3.org/2000/svg">
    <path d="M48.366 56.164C45.974 58.538 43.574 60.905 41.194 63.291C40.1007 64.4619 38.7559 65.3693 37.261 65.945C33.08 67.431 29.199 66.82 26.024 63.705C18.307 56.132 10.681 48.466 3.071 40.784C2.09514 39.8054 1.3217 38.6441 0.794878 37.3665C0.268057 36.0888 -0.00181878 34.7199 0.000688701 33.3379C0.00319618 31.9559 0.278011 30.588 0.809466 29.3122C1.34092 28.0365 2.11857 26.878 3.09798 25.903C10.68 18.2583 18.2943 10.645 25.941 3.063C27.9115 1.1043 30.576 0.00325178 33.3544 -0.000493952C36.1328 -0.00423968 38.8002 1.08963 40.776 3.043C45.936 8.11767 51.055 13.2343 56.133 18.393C58.073 20.3356 59.1731 22.962 59.1966 25.7072C59.2202 28.4525 58.1654 31.0974 56.259 33.073C51.559 37.941 46.716 42.667 41.937 47.456C41.763 47.63 41.603 47.817 41.437 47.998C40.965 48.272 40.975 48.516 41.375 48.909C43.599 51.096 45.798 53.309 47.997 55.522C48.169 55.694 48.485 55.815 48.371 56.164H48.366ZM48.382 25.864C48.326 25.589 48.117 25.47 47.964 25.316C43.2613 20.6073 38.5587 15.8983 33.856 11.189C33.502 10.834 33.309 10.766 32.914 11.164C25.678 18.4307 18.429 25.6807 11.167 32.914C10.799 33.281 10.829 33.46 11.179 33.808C18.4337 41.0493 25.6793 48.2997 32.916 55.559C33.27 55.915 33.453 55.928 33.816 55.559C36.008 53.331 38.217 51.1207 40.443 48.928C40.808 48.569 40.853 48.369 40.461 47.984C38.246 45.81 36.074 43.595 33.861 41.422C33.453 41.022 33.408 40.822 33.846 40.388C38.556 35.7213 43.251 31.0367 47.931 26.334C48.088 26.177 48.237 26.012 48.379 25.863" fill="#97C93F"/>
</svg>
